<?xml version="1.0" encoding="utf-8"?>
<!-- Generator: Adobe Illustrator 27.2.0, SVG Export Plug-In . SVG Version: 6.00 Build 0)  -->
<svg version="1.1" id="Слой_1" xmlns="http://www.w3.org/2000/svg" xmlns:xlink="http://www.w3.org/1999/xlink" x="0px" y="0px"
	 viewBox="0 0 16 14" style="enable-background:new 0 0 16 14;" xml:space="preserve">
<style type="text/css">
	.st0{fill:#C1C1C1;}
</style>
<path class="st0" d="M3.4,13.9c-0.2,0.2-0.5,0.2-0.7,0l-2.5-2.5c-0.2-0.2-0.2-0.5,0-0.7c0.1-0.1,0.2-0.1,0.4-0.1H2v-10
	C2,0.2,2.2,0,2.5,0h1C3.8,0,4,0.2,4,0.5v10h1.5C5.8,10.5,6,10.7,6,11c0,0.1-0.1,0.3-0.1,0.4L3.4,13.9z"/>
<path class="st0" d="M7.5,12h8c0.3,0,0.5,0.2,0.5,0.5v1c0,0.3-0.2,0.5-0.5,0.5h-8C7.2,14,7,13.8,7,13.5v-1C7,12.2,7.2,12,7.5,12z"/>
<path class="st0" d="M7,8.5C7,8.2,7.2,8,7.5,8h6C13.8,8,14,8.2,14,8.5v1c0,0.3-0.2,0.5-0.5,0.5h-6C7.2,10,7,9.8,7,9.5L7,8.5z"/>
<path class="st0" d="M7,4.5C7,4.2,7.2,4,7.5,4h4C11.8,4,12,4.2,12,4.5v1C12,5.8,11.8,6,11.5,6h-4C7.2,6,7,5.8,7,5.5L7,4.5z"/>
<path class="st0" d="M7,0.5C7,0.2,7.2,0,7.5,0h2C9.8,0,10,0.2,10,0.5v1C10,1.8,9.8,2,9.5,2h-2C7.2,2,7,1.8,7,1.5L7,0.5z"/>
</svg>
