<svg width="16" height="14" viewBox="0 0 16 14" fill="none" xmlns="http://www.w3.org/2000/svg">
<path d="M3.3552 13.8526C3.15985 14.048 2.84283 14.048 2.64748 13.8526L0.149035 11.3511C-0.0480309 11.1575 -0.0497445 10.8405 0.143894 10.6435C0.238142 10.5475 0.368377 10.4944 0.502039 10.4944H2.00316V0.500306C2.00316 0.224452 2.22765 0 2.50354 0H3.50429C3.78018 0 4.00466 0.224452 4.00466 0.500306V10.4979H5.50407C5.77996 10.4961 6.00445 10.7206 6.00616 10.9965C6.00616 11.1318 5.95304 11.2603 5.85708 11.3545L3.3552 13.8526ZM7.00177 1.50092V0.500306C7.00177 0.224452 7.22625 0 7.50214 0H15.4996C15.7755 0 16 0.224452 16 0.500306V1.50092C16 1.77677 15.7755 2.00122 15.4996 2.00122H7.50043C7.22454 1.99951 7.00177 1.77677 7.00177 1.50092ZM7.00177 4.50104C7.00177 4.22519 7.22625 4.00073 7.50214 4.00073H13.4998C13.774 4.00245 13.9967 4.22519 13.9985 4.49933V5.49994C13.9985 5.77579 13.774 6.00025 13.4981 6.00025H7.50043C7.22454 6.00025 7.00006 5.77579 7.00006 5.49994L7.00177 4.50104ZM7.00177 8.50006C7.00177 8.22421 7.22625 7.99976 7.50214 7.99976H11.5C11.7759 7.99976 12.0004 8.22421 12.0004 8.50006V9.49896C12.0004 9.77481 11.7759 9.99927 11.5 9.99927H7.50043C7.22454 9.99927 7.00006 9.77481 7.00006 9.49896L7.00177 8.50006ZM7.00177 12.4991C7.00177 12.2232 7.22625 11.9988 7.50214 11.9988H9.50022C9.77611 11.9988 10.0006 12.2232 10.0006 12.4991V13.4997C10.0006 13.7755 9.77611 14 9.50022 14H7.50043C7.22454 14 7.00006 13.7755 7.00006 13.4997L7.00177 12.4991Z" fill="#C1C1C1"/>
</svg>
