<svg width="23" height="21" viewBox="0 0 23 21" fill="none" xmlns="http://www.w3.org/2000/svg">
<g clip-path="url(#clip0_15_3)">
<path d="M20.9179 3.84919H17.1168L16.1242 0.682135C16.0032 0.292343 15.6158 0 15.2042 0H7.77158C7.36 0 6.97263 0.267981 6.85158 0.682135L5.85895 3.84919H2.08211C0.92 3.84919 0 4.7993 0 5.94432V12.9118C0 14.0812 0.944211 15.007 2.08211 15.007H2.42105L0.944211 19.7575C0.847368 20.0499 0.895789 20.3666 1.08947 20.6102C1.25895 20.8538 1.54947 21 1.86421 21H21.1358C21.4505 21 21.7168 20.8538 21.9105 20.6102C22.08 20.3666 22.1526 20.0499 22.0558 19.7575L20.5789 15.0313H20.9179C22.08 15.0313 23 14.0812 23 12.9362V5.94432C23 4.77494 22.0558 3.84919 20.9179 3.84919ZM19.4411 6.30974C20.0705 6.30974 20.5547 6.82135 20.5547 7.43039C20.5547 8.06381 20.0463 8.55104 19.4411 8.55104C18.8358 8.55104 18.3274 8.03944 18.3274 7.43039C18.3274 6.82135 18.8358 6.30974 19.4411 6.30974ZM8.49789 1.92459H14.5263L15.1316 3.82483H7.89263L8.49789 1.92459ZM3.17158 19.0754L5.59263 11.3283H17.4074L19.8284 19.0754H3.17158Z" fill="#0F5294"/>
<path d="M7.96584 14.4223H15.0111C15.4469 14.4223 15.7858 14.0813 15.7858 13.6427C15.7858 13.2042 15.4469 12.8632 15.0111 12.8632H7.96584C7.53005 12.8632 7.1911 13.2042 7.1911 13.6427C7.1911 14.0813 7.55426 14.4223 7.96584 14.4223Z" fill="#0F5294"/>
<path d="M16.0277 15.957H6.97292C6.53713 15.957 6.19818 16.2981 6.19818 16.7366C6.19818 17.1751 6.53713 17.5162 6.97292 17.5162H16.0277C16.4634 17.5162 16.8024 17.1751 16.8024 16.7366C16.8024 16.2981 16.4392 15.957 16.0277 15.957Z" fill="#0F5294"/>
</g>
<defs>
<clipPath id="clip0_15_3">
<rect width="23" height="21" fill="white"/>
</clipPath>
</defs>
</svg>
