<?xml version="1.0" encoding="utf-8"?>
<!-- Generator: Adobe Illustrator 27.2.0, SVG Export Plug-In . SVG Version: 6.00 Build 0)  -->
<svg version="1.1" id="Слой_1" xmlns="http://www.w3.org/2000/svg" xmlns:xlink="http://www.w3.org/1999/xlink" x="0px" y="0px"
	 viewBox="0 0 50 50" style="enable-background:new 0 0 50 50;" xml:space="preserve">
<style type="text/css">
	.st0{fill:#0F5294;}
</style>
<path class="st0" d="M41.9,8.6c-0.7,0-1.3,0.4-1.6,0.9L21.5,38.3L9.3,27.8c-0.5-0.5-1.3-0.7-2-0.5c-0.7,0.2-1.3,0.8-1.4,1.6
	c-0.1,0.7,0.2,1.5,0.8,1.9l13.9,12.1c0.4,0.4,1,0.5,1.6,0.5c0.6-0.1,1.1-0.4,1.4-0.9l20.1-30.7c0.4-0.6,0.5-1.4,0.1-2.1
	C43.4,9,42.7,8.6,41.9,8.6z"/>
</svg>
