<?xml version="1.0" encoding="utf-8"?>
<!-- Generator: Adobe Illustrator 27.2.0, SVG Export Plug-In . SVG Version: 6.00 Build 0)  -->
<svg version="1.1" id="Слой_1" xmlns="http://www.w3.org/2000/svg" xmlns:xlink="http://www.w3.org/1999/xlink" x="0px" y="0px"
	 viewBox="0 0 50 50" style="enable-background:new 0 0 50 50;" xml:space="preserve">
<style type="text/css">
	.st0{fill:#0F5294;}
</style>
<path class="st0" d="M8.5,7L7,8.5c-0.4,0.4-0.4,1,0,1.4l14.4,14.4c0.4,0.4,0.4,1,0,1.4L6.9,40.3c-0.4,0.4-0.4,1,0,1.4l1.4,1.4
	c0.4,0.4,1,0.4,1.4,0l14.6-14.5c0.4-0.4,1-0.4,1.4,0l14.5,14.5c0.4,0.4,1,0.4,1.4,0l1.4-1.4c0.4-0.4,0.4-1,0-1.4L28.5,25.7
	c-0.4-0.4-0.4-1,0-1.4L43,9.9c0.4-0.4,0.4-1,0-1.4L41.5,7c-0.4-0.4-1-0.4-1.4,0L25.7,21.5c-0.4,0.4-1,0.4-1.4,0L9.9,7
	C9.5,6.6,8.8,6.6,8.5,7z"/>
</svg>
